<?xml version="1.0" encoding="UTF-8" standalone="no"?>
<!DOCTYPE svg PUBLIC "-//W3C//DTD SVG 1.1//EN"
 "http://www.w3.org/Graphics/SVG/1.1/DTD/svg11.dtd">
<!-- Generated by graphviz version 14.1.2 (0)
 -->
<!-- Title: snakemake_dag Pages: 1 -->
<svg width="362pt" height="548pt"
 viewBox="0.00 0.00 362.00 548.00" xmlns="http://www.w3.org/2000/svg" xmlns:xlink="http://www.w3.org/1999/xlink">
<g id="graph0" class="graph" transform="scale(1 1) rotate(0) translate(4 544)">
<title>snakemake_dag</title>
<polygon fill="white" stroke="none" points="-4,4 -4,-544 358,-544 358,4 -4,4"/>
<!-- 0 -->
<g id="node1" class="node">
<title>0</title>
<path fill="none" stroke="#d85656" stroke-width="2" d="M212.25,-36C212.25,-36 182.25,-36 182.25,-36 176.25,-36 170.25,-30 170.25,-24 170.25,-24 170.25,-12 170.25,-12 170.25,-6 176.25,0 182.25,0 182.25,0 212.25,0 212.25,0 218.25,0 224.25,-6 224.25,-12 224.25,-12 224.25,-24 224.25,-24 224.25,-30 218.25,-36 212.25,-36"/>
<text xml:space="preserve" text-anchor="middle" x="197.25" y="-14.12" font-family="sans" font-size="10.00">all</text>
</g>
<!-- 1 -->
<g id="node2" class="node">
<title>1</title>
<path fill="none" stroke="#d88d56" stroke-width="2" d="M168.25,-108C168.25,-108 134.25,-108 134.25,-108 128.25,-108 122.25,-102 122.25,-96 122.25,-96 122.25,-84 122.25,-84 122.25,-78 128.25,-72 134.25,-72 134.25,-72 168.25,-72 168.25,-72 174.25,-72 180.25,-78 180.25,-84 180.25,-84 180.25,-96 180.25,-96 180.25,-102 174.25,-108 168.25,-108"/>
<text xml:space="preserve" text-anchor="middle" x="151.25" y="-86.12" font-family="sans" font-size="10.00">assemble</text>
</g>
<!-- 1&#45;&gt;0 -->
<g id="edge4" class="edge">
<title>1&#45;&gt;0</title>
<path fill="none" stroke="grey" stroke-width="2" d="M162.86,-71.34C167.56,-64.18 173.12,-55.73 178.37,-47.73"/>
<polygon fill="grey" stroke="grey" stroke-width="2" points="181.26,-49.71 183.82,-39.43 175.41,-45.87 181.26,-49.71"/>
</g>
<!-- 2 -->
<g id="node3" class="node">
<title>2</title>
<path fill="none" stroke="#d8cb56" stroke-width="2" d="M166.25,-180C166.25,-180 136.25,-180 136.25,-180 130.25,-180 124.25,-174 124.25,-168 124.25,-168 124.25,-156 124.25,-156 124.25,-150 130.25,-144 136.25,-144 136.25,-144 166.25,-144 166.25,-144 172.25,-144 178.25,-150 178.25,-156 178.25,-156 178.25,-168 178.25,-168 178.25,-174 172.25,-180 166.25,-180"/>
<text xml:space="preserve" text-anchor="middle" x="151.25" y="-158.12" font-family="sans" font-size="10.00">cards</text>
</g>
<!-- 2&#45;&gt;1 -->
<g id="edge5" class="edge">
<title>2&#45;&gt;1</title>
<path fill="none" stroke="grey" stroke-width="2" d="M151.25,-143.34C151.25,-136.75 151.25,-129.08 151.25,-121.67"/>
<polygon fill="grey" stroke="grey" stroke-width="2" points="154.75,-121.93 151.25,-111.93 147.75,-121.93 154.75,-121.93"/>
</g>
<!-- 3 -->
<g id="node4" class="node">
<title>3</title>
<path fill="none" stroke="#afd856" stroke-width="2" d="M160.25,-396C160.25,-396 130.25,-396 130.25,-396 124.25,-396 118.25,-390 118.25,-384 118.25,-384 118.25,-372 118.25,-372 118.25,-366 124.25,-360 130.25,-360 130.25,-360 160.25,-360 160.25,-360 166.25,-360 172.25,-366 172.25,-372 172.25,-372 172.25,-384 172.25,-384 172.25,-390 166.25,-396 160.25,-396"/>
<text xml:space="preserve" text-anchor="middle" x="145.25" y="-374.12" font-family="sans" font-size="10.00">cluster</text>
</g>
<!-- 3&#45;&gt;2 -->
<g id="edge10" class="edge">
<title>3&#45;&gt;2</title>
<path fill="none" stroke="grey" stroke-width="2" d="M145.75,-359.12C146.77,-322.62 149.12,-239.13 150.39,-193.74"/>
<polygon fill="grey" stroke="grey" stroke-width="2" points="153.88,-194.1 150.66,-184 146.88,-193.9 153.88,-194.1"/>
</g>
<!-- 6 -->
<g id="node7" class="node">
<title>6</title>
<path fill="none" stroke="#56d8a9" stroke-width="2" d="M231.25,-252C231.25,-252 201.25,-252 201.25,-252 195.25,-252 189.25,-246 189.25,-240 189.25,-240 189.25,-228 189.25,-228 189.25,-222 195.25,-216 201.25,-216 201.25,-216 231.25,-216 231.25,-216 237.25,-216 243.25,-222 243.25,-228 243.25,-228 243.25,-240 243.25,-240 243.25,-246 237.25,-252 231.25,-252"/>
<text xml:space="preserve" text-anchor="middle" x="216.25" y="-230.12" font-family="sans" font-size="10.00">master</text>
</g>
<!-- 3&#45;&gt;6 -->
<g id="edge18" class="edge">
<title>3&#45;&gt;6</title>
<path fill="none" stroke="grey" stroke-width="2" d="M154.24,-359.02C166.14,-335.22 187.26,-292.97 201.51,-264.48"/>
<polygon fill="grey" stroke="grey" stroke-width="2" points="204.64,-266.06 205.98,-255.55 198.37,-262.92 204.64,-266.06"/>
</g>
<!-- 7 -->
<g id="node8" class="node">
<title>7</title>
<path fill="none" stroke="#c6d856" stroke-width="2" d="M242.25,-324C242.25,-324 212.25,-324 212.25,-324 206.25,-324 200.25,-318 200.25,-312 200.25,-312 200.25,-300 200.25,-300 200.25,-294 206.25,-288 212.25,-288 212.25,-288 242.25,-288 242.25,-288 248.25,-288 254.25,-294 254.25,-300 254.25,-300 254.25,-312 254.25,-312 254.25,-318 248.25,-324 242.25,-324"/>
<text xml:space="preserve" text-anchor="middle" x="227.25" y="-302.12" font-family="sans" font-size="10.00">classify</text>
</g>
<!-- 3&#45;&gt;7 -->
<g id="edge20" class="edge">
<title>3&#45;&gt;7</title>
<path fill="none" stroke="grey" stroke-width="2" d="M165.94,-359.34C175.19,-351.44 186.29,-341.96 196.49,-333.26"/>
<polygon fill="grey" stroke="grey" stroke-width="2" points="198.64,-336.02 203.98,-326.87 194.1,-330.7 198.64,-336.02"/>
</g>
<!-- 11 -->
<g id="node12" class="node">
<title>11</title>
<path fill="none" stroke="#d87556" stroke-width="2" d="M94.25,-324C94.25,-324 64.25,-324 64.25,-324 58.25,-324 52.25,-318 52.25,-312 52.25,-312 52.25,-300 52.25,-300 52.25,-294 58.25,-288 64.25,-288 64.25,-288 94.25,-288 94.25,-288 100.25,-288 106.25,-294 106.25,-300 106.25,-300 106.25,-312 106.25,-312 106.25,-318 100.25,-324 94.25,-324"/>
<text xml:space="preserve" text-anchor="middle" x="79.25" y="-302.12" font-family="sans" font-size="10.00">annotate</text>
</g>
<!-- 3&#45;&gt;11 -->
<g id="edge22" class="edge">
<title>3&#45;&gt;11</title>
<path fill="none" stroke="grey" stroke-width="2" d="M128.6,-359.34C121.46,-351.77 112.96,-342.75 105.04,-334.35"/>
<polygon fill="grey" stroke="grey" stroke-width="2" points="107.61,-331.98 98.21,-327.1 102.52,-336.78 107.61,-331.98"/>
</g>
<!-- 12 -->
<g id="node13" class="node">
<title>12</title>
<path fill="none" stroke="#8fd856" stroke-width="2" d="M56.5,-180C56.5,-180 12,-180 12,-180 6,-180 0,-174 0,-168 0,-168 0,-156 0,-156 0,-150 6,-144 12,-144 12,-144 56.5,-144 56.5,-144 62.5,-144 68.5,-150 68.5,-156 68.5,-156 68.5,-168 68.5,-168 68.5,-174 62.5,-180 56.5,-180"/>
<text xml:space="preserve" text-anchor="middle" x="34.25" y="-158.12" font-family="sans" font-size="10.00">composition</text>
</g>
<!-- 3&#45;&gt;12 -->
<g id="edge24" class="edge">
<title>3&#45;&gt;12</title>
<path fill="none" stroke="grey" stroke-width="2" d="M117.52,-370.76C93.45,-363.75 59.93,-349.81 43.25,-324 17.83,-284.66 21.79,-227.99 27.59,-193.43"/>
<polygon fill="grey" stroke="grey" stroke-width="2" points="30.97,-194.38 29.37,-183.9 24.09,-193.09 30.97,-194.38"/>
</g>
<!-- 4 -->
<g id="node5" class="node">
<title>4</title>
<path fill="none" stroke="#56d873" stroke-width="2" d="M215.25,-468C215.25,-468 185.25,-468 185.25,-468 179.25,-468 173.25,-462 173.25,-456 173.25,-456 173.25,-444 173.25,-444 173.25,-438 179.25,-432 185.25,-432 185.25,-432 215.25,-432 215.25,-432 221.25,-432 227.25,-438 227.25,-444 227.25,-444 227.25,-456 227.25,-456 227.25,-462 221.25,-468 215.25,-468"/>
<text xml:space="preserve" text-anchor="middle" x="200.25" y="-446.12" font-family="sans" font-size="10.00">foldseek</text>
</g>
<!-- 4&#45;&gt;3 -->
<g id="edge11" class="edge">
<title>4&#45;&gt;3</title>
<path fill="none" stroke="grey" stroke-width="2" d="M186.37,-431.34C180.55,-423.93 173.65,-415.14 167.17,-406.9"/>
<polygon fill="grey" stroke="grey" stroke-width="2" points="170.12,-404.98 161.19,-399.28 164.61,-409.31 170.12,-404.98"/>
</g>
<!-- 5 -->
<g id="node6" class="node">
<title>5</title>
<path fill="none" stroke="#56c9d8" stroke-width="2" d="M215.25,-540C215.25,-540 185.25,-540 185.25,-540 179.25,-540 173.25,-534 173.25,-528 173.25,-528 173.25,-516 173.25,-516 173.25,-510 179.25,-504 185.25,-504 185.25,-504 215.25,-504 215.25,-504 221.25,-504 227.25,-510 227.25,-516 227.25,-516 227.25,-528 227.25,-528 227.25,-534 221.25,-540 215.25,-540"/>
<text xml:space="preserve" text-anchor="middle" x="200.25" y="-518.12" font-family="sans" font-size="10.00">qc</text>
</g>
<!-- 5&#45;&gt;3 -->
<g id="edge12" class="edge">
<title>5&#45;&gt;3</title>
<path fill="none" stroke="grey" stroke-width="2" d="M185.73,-503.38C178.28,-493.52 169.67,-480.69 164.25,-468 156.28,-449.33 151.53,-426.99 148.76,-409.36"/>
<polygon fill="grey" stroke="grey" stroke-width="2" points="152.26,-409.08 147.41,-399.66 145.33,-410.05 152.26,-409.08"/>
</g>
<!-- 5&#45;&gt;4 -->
<g id="edge13" class="edge">
<title>5&#45;&gt;4</title>
<path fill="none" stroke="grey" stroke-width="2" d="M200.25,-503.34C200.25,-496.75 200.25,-489.08 200.25,-481.67"/>
<polygon fill="grey" stroke="grey" stroke-width="2" points="203.75,-481.93 200.25,-471.93 196.75,-481.93 203.75,-481.93"/>
</g>
<!-- 9 -->
<g id="node10" class="node">
<title>9</title>
<path fill="none" stroke="#56a9d8" stroke-width="2" d="M342,-468C342,-468 294.5,-468 294.5,-468 288.5,-468 282.5,-462 282.5,-456 282.5,-456 282.5,-444 282.5,-444 282.5,-438 288.5,-432 294.5,-432 294.5,-432 342,-432 342,-432 348,-432 354,-438 354,-444 354,-444 354,-456 354,-456 354,-462 348,-468 342,-468"/>
<text xml:space="preserve" text-anchor="middle" x="318.25" y="-446.12" font-family="sans" font-size="10.00">sasa_pocket</text>
</g>
<!-- 5&#45;&gt;9 -->
<g id="edge21" class="edge">
<title>5&#45;&gt;9</title>
<path fill="none" stroke="grey" stroke-width="2" d="M228.21,-504.41C242.83,-495.74 261.01,-484.96 277.19,-475.36"/>
<polygon fill="grey" stroke="grey" stroke-width="2" points="278.59,-478.6 285.4,-470.49 275.02,-472.58 278.59,-478.6"/>
</g>
<!-- 6&#45;&gt;0 -->
<g id="edge2" class="edge">
<title>6&#45;&gt;0</title>
<path fill="none" stroke="grey" stroke-width="2" d="M214.66,-215.12C211.42,-178.62 204.01,-95.13 199.98,-49.74"/>
<polygon fill="grey" stroke="grey" stroke-width="2" points="203.48,-49.64 199.11,-39.99 196.51,-50.26 203.48,-49.64"/>
</g>
<!-- 6&#45;&gt;1 -->
<g id="edge6" class="edge">
<title>6&#45;&gt;1</title>
<path fill="none" stroke="grey" stroke-width="2" d="M211.99,-215.03C207.27,-196.64 198.77,-167.49 187.25,-144 183.17,-135.68 177.93,-127.16 172.72,-119.45"/>
<polygon fill="grey" stroke="grey" stroke-width="2" points="175.62,-117.49 167,-111.34 169.9,-121.53 175.62,-117.49"/>
</g>
<!-- 6&#45;&gt;2 -->
<g id="edge9" class="edge">
<title>6&#45;&gt;2</title>
<path fill="none" stroke="grey" stroke-width="2" d="M199.85,-215.34C192.82,-207.77 184.45,-198.75 176.65,-190.35"/>
<polygon fill="grey" stroke="grey" stroke-width="2" points="179.3,-188.07 169.93,-183.12 174.17,-192.83 179.3,-188.07"/>
</g>
<!-- 7&#45;&gt;6 -->
<g id="edge15" class="edge">
<title>7&#45;&gt;6</title>
<path fill="none" stroke="grey" stroke-width="2" d="M224.47,-287.34C223.44,-280.75 222.23,-273.08 221.07,-265.67"/>
<polygon fill="grey" stroke="grey" stroke-width="2" points="224.54,-265.23 219.53,-255.89 217.63,-266.31 224.54,-265.23"/>
</g>
<!-- 8 -->
<g id="node9" class="node">
<title>8</title>
<path fill="none" stroke="#d8ac56" stroke-width="2" d="M242.25,-396C242.25,-396 212.25,-396 212.25,-396 206.25,-396 200.25,-390 200.25,-384 200.25,-384 200.25,-372 200.25,-372 200.25,-366 206.25,-360 212.25,-360 212.25,-360 242.25,-360 242.25,-360 248.25,-360 254.25,-366 254.25,-372 254.25,-372 254.25,-384 254.25,-384 254.25,-390 248.25,-396 242.25,-396"/>
<text xml:space="preserve" text-anchor="middle" x="227.25" y="-374.12" font-family="sans" font-size="10.00">blastp</text>
</g>
<!-- 8&#45;&gt;7 -->
<g id="edge19" class="edge">
<title>8&#45;&gt;7</title>
<path fill="none" stroke="grey" stroke-width="2" d="M227.25,-359.34C227.25,-352.75 227.25,-345.08 227.25,-337.67"/>
<polygon fill="grey" stroke="grey" stroke-width="2" points="230.75,-337.93 227.25,-327.93 223.75,-337.93 230.75,-337.93"/>
</g>
<!-- 9&#45;&gt;6 -->
<g id="edge16" class="edge">
<title>9&#45;&gt;6</title>
<path fill="none" stroke="grey" stroke-width="2" d="M326.97,-431.1C341,-399.43 364.26,-332.67 335.25,-288 317.92,-261.31 283.69,-247.95 256.37,-241.33"/>
<polygon fill="grey" stroke="grey" stroke-width="2" points="257.48,-237.98 246.96,-239.3 256,-244.83 257.48,-237.98"/>
</g>
<!-- 10 -->
<g id="node11" class="node">
<title>10</title>
<path fill="none" stroke="#59d856" stroke-width="2" d="M314.25,-324C314.25,-324 284.25,-324 284.25,-324 278.25,-324 272.25,-318 272.25,-312 272.25,-312 272.25,-300 272.25,-300 272.25,-294 278.25,-288 284.25,-288 284.25,-288 314.25,-288 314.25,-288 320.25,-288 326.25,-294 326.25,-300 326.25,-300 326.25,-312 326.25,-312 326.25,-318 320.25,-324 314.25,-324"/>
<text xml:space="preserve" text-anchor="middle" x="299.25" y="-302.12" font-family="sans" font-size="10.00">esm</text>
</g>
<!-- 10&#45;&gt;6 -->
<g id="edge14" class="edge">
<title>10&#45;&gt;6</title>
<path fill="none" stroke="grey" stroke-width="2" d="M278.31,-287.34C268.94,-279.44 257.71,-269.96 247.39,-261.26"/>
<polygon fill="grey" stroke="grey" stroke-width="2" points="249.69,-258.62 239.79,-254.85 245.18,-263.98 249.69,-258.62"/>
</g>
<!-- 11&#45;&gt;1 -->
<g id="edge8" class="edge">
<title>11&#45;&gt;1</title>
<path fill="none" stroke="grey" stroke-width="2" d="M81,-287.42C84.48,-257.08 93.87,-193.42 115.25,-144 118.93,-135.49 124.03,-126.91 129.23,-119.2"/>
<polygon fill="grey" stroke="grey" stroke-width="2" points="132.05,-121.28 135.01,-111.11 126.35,-117.21 132.05,-121.28"/>
</g>
<!-- 11&#45;&gt;6 -->
<g id="edge17" class="edge">
<title>11&#45;&gt;6</title>
<path fill="none" stroke="grey" stroke-width="2" d="M106.97,-290.83C127.12,-280.54 154.67,-266.46 177.06,-255.02"/>
<polygon fill="grey" stroke="grey" stroke-width="2" points="178.56,-258.19 185.87,-250.52 175.37,-251.96 178.56,-258.19"/>
</g>
<!-- 11&#45;&gt;12 -->
<g id="edge23" class="edge">
<title>11&#45;&gt;12</title>
<path fill="none" stroke="grey" stroke-width="2" d="M73.55,-287.02C66.08,-263.44 52.86,-221.73 43.84,-193.25"/>
<polygon fill="grey" stroke="grey" stroke-width="2" points="47.17,-192.2 40.82,-183.72 40.5,-194.31 47.17,-192.2"/>
</g>
<!-- 12&#45;&gt;0 -->
<g id="edge1" class="edge">
<title>12&#45;&gt;0</title>
<path fill="none" stroke="grey" stroke-width="2" d="M47.52,-143.27C62.26,-124.29 87.42,-93.93 113.25,-72 127.08,-60.26 143.72,-49.22 158.54,-40.29"/>
<polygon fill="grey" stroke="grey" stroke-width="2" points="159.97,-43.51 166.82,-35.42 156.43,-37.47 159.97,-43.51"/>
</g>
<!-- 12&#45;&gt;1 -->
<g id="edge7" class="edge">
<title>12&#45;&gt;1</title>
<path fill="none" stroke="grey" stroke-width="2" d="M64.08,-143.15C78.24,-134.68 95.39,-124.42 110.71,-115.25"/>
<polygon fill="grey" stroke="grey" stroke-width="2" points="112.1,-118.5 118.88,-110.37 108.5,-112.5 112.1,-118.5"/>
</g>
<!-- 13 -->
<g id="node14" class="node">
<title>13</title>
<path fill="none" stroke="#5692d8" stroke-width="2" d="M328.5,-108C328.5,-108 284,-108 284,-108 278,-108 272,-102 272,-96 272,-96 272,-84 272,-84 272,-78 278,-72 284,-72 284,-72 328.5,-72 328.5,-72 334.5,-72 340.5,-78 340.5,-84 340.5,-84 340.5,-96 340.5,-96 340.5,-102 334.5,-108 328.5,-108"/>
<text xml:space="preserve" text-anchor="middle" x="306.25" y="-86.12" font-family="sans" font-size="10.00">save_config</text>
</g>
<!-- 13&#45;&gt;0 -->
<g id="edge3" class="edge">
<title>13&#45;&gt;0</title>
<path fill="none" stroke="grey" stroke-width="2" d="M278.46,-71.15C265.52,-62.84 249.91,-52.82 235.85,-43.79"/>
<polygon fill="grey" stroke="grey" stroke-width="2" points="237.84,-40.91 227.53,-38.45 234.06,-46.8 237.84,-40.91"/>
</g>
</g>
</svg>
